{
  "accessors": [
    {
      "bufferView": 2,
      "componentType": 5126,
      "count": 1437,
      "max": [
        562.8433227539063,
        231.41534423828125,
        184.68405151367188
      ],
      "min": [
        -976.3135986328125,
        -393.2283935546875,
        -184.68394470214844
      ],
      "type": "VEC3"
    },
    {
      "bufferView": 2,
      "byteOffset": 17244,
      "componentType": 5126,
      "count": 1437,
      "max": [
        1.0,
        1.0,
        1.0
      ],
      "min": [
        -1.0,
        -1.0,
        -1.0
      ],
      "type": "VEC3"
    },
    {
      "bufferView": 3,
      "componentType": 5126,
      "count": 1437,
      "max": [
        1.0,
        1.0,
        1.0,
        1.0
      ],
      "min": [
        -1.0,
        -1.0,
        -1.0,
        1.0
      ],
      "type": "VEC4"
    },
    {
      "bufferView": 1,
      "componentType": 5126,
      "count": 1437,
      "max": [
        0.9995003938674927,
        0.9897283911705017
      ],
      "min": [
        0.0004995004856027663,
        0.0004946169210597873
      ],
      "type": "VEC2"
    },
    {
      "bufferView": 0,
      "componentType": 5125,
      "count": 3030,
      "type": "SCALAR"
    },
    {
      "bufferView": 2,
      "byteOffset": 34488,
      "componentType": 5126,
      "count": 6486,
      "max": [
        557.6753540039063,
        207.4102325439453,
        185.11386108398438
      ],
      "min": [
        -977.4442138671875,
        -397.61309814453125,
        -184.8998260498047
      ],
      "type": "VEC3"
    },
    {
      "bufferView": 2,
      "byteOffset": 112320,
      "componentType": 5126,
      "count": 6486,
      "max": [
        1.0,
        1.0,
        1.0
      ],
      "min": [
        -1.0,
        -1.0,
        -1.0
      ],
      "type": "VEC3"
    },
    {
      "bufferView": 3,
      "byteOffset": 22992,
      "componentType": 5126,
      "count": 6486,
      "max": [
        1.0,
        1.0,
        1.0,
        1.0
      ],
      "min": [
        -1.0,
        -1.0,
        -1.0,
        1.0
      ],
      "type": "VEC4"
    },
    {
      "bufferView": 1,
      "byteOffset": 11496,
      "componentType": 5126,
      "count": 6486,
      "max": [
        0.9132837653160095,
        0.9995003938674927
      ],
      "min": [
        0.00047136362991295755,
        0.000499514804687351
      ],
      "type": "VEC2"
    },
    {
      "bufferView": 0,
      "byteOffset": 12120,
      "componentType": 5125,
      "count": 18528,
      "type": "SCALAR"
    }
  ],
  "asset": {
    "extras": {
      "author": "cmitche1 (https://sketchfab.com/cmitche1)",
      "license": "CC-BY-4.0 (http://creativecommons.org/licenses/by/4.0/)",
      "source": "https://sketchfab.com/3d-models/truck-trailer-cd9a5677626f4b648a4a3b1e0d9ca5b9",
      "title": "Truck Trailer"
    },
    "generator": "Sketchfab-12.65.0",
    "version": "2.0"
  },
  "bufferViews": [
    {
      "buffer": 0,
      "byteLength": 86232,
      "name": "floatBufferViews",
      "target": 34963
    },
    {
      "buffer": 0,
      "byteLength": 63384,
      "byteOffset": 86232,
      "byteStride": 8,
      "name": "floatBufferViews",
      "target": 34962
    },
    {
      "buffer": 0,
      "byteLength": 190152,
      "byteOffset": 149616,
      "byteStride": 12,
      "name": "floatBufferViews",
      "target": 34962
    },
    {
      "buffer": 0,
      "byteLength": 126768,
      "byteOffset": 339768,
      "byteStride": 16,
      "name": "floatBufferViews",
      "target": 34962
    }
  ],
  "buffers": [
    {
      "byteLength": 466536,
      "uri": "scene.bin"
    }
  ],
  "images": [
    {
      "uri": "textures/lambert1_baseColor.png"
    },
    {
      "uri": "textures/lambert1_metallicRoughness.png"
    },
    {
      "uri": "textures/lambert1_normal.png"
    },
    {
      "uri": "textures/lambert2_baseColor.png"
    },
    {
      "uri": "textures/lambert2_metallicRoughness.png"
    },
    {
      "uri": "textures/lambert2_normal.png"
    }
  ],
  "materials": [
    {
      "doubleSided": true,
      "name": "lambert1",
      "normalTexture": {
        "index": 2
      },
      "pbrMetallicRoughness": {
        "baseColorTexture": {
          "index": 0
        },
        "metallicRoughnessTexture": {
          "index": 1
        }
      }
    },
    {
      "doubleSided": true,
      "name": "lambert2",
      "normalTexture": {
        "index": 5
      },
      "pbrMetallicRoughness": {
        "baseColorTexture": {
          "index": 3
        },
        "metallicRoughnessTexture": {
          "index": 4
        }
      }
    }
  ],
  "meshes": [
    {
      "name": "polySurface75_lambert1_0",
      "primitives": [
        {
          "attributes": {
            "NORMAL": 1,
            "POSITION": 0,
            "TANGENT": 2,
            "TEXCOORD_0": 3
          },
          "indices": 4,
          "material": 0,
          "mode": 4
        }
      ]
    },
    {
      "name": "polySurface75_lambert2_0",
      "primitives": [
        {
          "attributes": {
            "NORMAL": 6,
            "POSITION": 5,
            "TANGENT": 7,
            "TEXCOORD_0": 8
          },
          "indices": 9,
          "material": 1,
          "mode": 4
        }
      ]
    }
  ],
  "nodes": [
    {
      "children": [
        1
      ],
      "matrix": [
        -1.0,
        2.8327693431939995e-16,
        -1.6081226229577284e-16,
        0.0,
        1.6081226229577292e-16,
        2.2204460492503128e-16,
        -1.0,
        0.0,
        -2.832769343193999e-16,
        -1.0,
        -2.220446049250313e-16,
        0.0,
        0.001300404081121087,
        -397.44854736328125,
        -1.0956747932989314e-13,
        1.0
      ],
      "name": "Sketchfab_model"
    },
    {
      "children": [
        2
      ],
      "matrix": [
        1.0,
        0.0,
        0.0,
        0.0,
        0.0,
        -1.0,
        0.0,
        0.0,
        0.0,
        0.0,
        -1.0,
        0.0,
        0.0,
        0.0,
        0.0,
        1.0
      ],
      "name": "SM_Cmitche1_Trailer.fbx"
    },
    {
      "children": [
        3
      ],
      "name": "RootNode"
    },
    {
      "children": [
        4,
        5
      ],
      "matrix": [
        0.6407781839370728,
        0.0,
        0.0,
        0.0,
        0.0,
        1.4228133869688636e-16,
        0.6407781839370728,
        0.0,
        0.0,
        -0.6407781839370728,
        1.4228133869688636e-16,
        0.0,
        132.83360290527344,
        0.06857448816299438,
        251.97219848632813,
        1.0
      ],
      "name": "polySurface75"
    },
    {
      "mesh": 0,
      "name": "polySurface75_lambert1_0"
    },
    {
      "mesh": 1,
      "name": "polySurface75_lambert2_0"
    }
  ],
  "samplers": [
    {
      "magFilter": 9729,
      "minFilter": 9987,
      "wrapS": 10497,
      "wrapT": 10497
    }
  ],
  "scene": 0,
  "scenes": [
    {
      "name": "Sketchfab_Scene",
      "nodes": [
        0
      ]
    }
  ],
  "textures": [
    {
      "sampler": 0,
      "source": 0
    },
    {
      "sampler": 0,
      "source": 1
    },
    {
      "sampler": 0,
      "source": 2
    },
    {
      "sampler": 0,
      "source": 3
    },
    {
      "sampler": 0,
      "source": 4
    },
    {
      "sampler": 0,
      "source": 5
    }
  ]
}
