{
  "accessors": [
    {
      "bufferView": 1,
      "componentType": 5126,
      "count": 29278,
      "max": [
        6.465419292449951,
        3.8603806495666504,
        5.915404796600342
      ],
      "min": [
        -7.910407543182373,
        -5.458157539367676,
        -9.964038848876953
      ],
      "type": "VEC3"
    },
    {
      "bufferView": 1,
      "byteOffset": 351336,
      "componentType": 5126,
      "count": 29278,
      "max": [
        0.9999998211860657,
        0.9999920725822449,
        1.0
      ],
      "min": [
        -0.9999792575836182,
        -0.9999719262123108,
        -1.0
      ],
      "type": "VEC3"
    },
    {
      "bufferView": 0,
      "componentType": 5125,
      "count": 165990,
      "type": "SCALAR"
    },
    {
      "bufferView": 1,
      "byteOffset": 702672,
      "componentType": 5126,
      "count": 18240,
      "max": [
        6.126944065093994,
        4.271285533905029,
        7.973595142364502
      ],
      "min": [
        -5.6886091232299805,
        -5.1368513107299805,
        -8.039554595947266
      ],
      "type": "VEC3"
    },
    {
      "bufferView": 1,
      "byteOffset": 921552,
      "componentType": 5126,
      "count": 18240,
      "max": [
        0.9998764991760254,
        0.9998137950897217,
        0.999987781047821
      ],
      "min": [
        -0.999876856803894,
        -0.9997988939285278,
        -0.9999779462814331
      ],
      "type": "VEC3"
    },
    {
      "bufferView": 0,
      "byteOffset": 663960,
      "componentType": 5125,
      "count": 104148,
      "type": "SCALAR"
    },
    {
      "bufferView": 1,
      "byteOffset": 1140432,
      "componentType": 5126,
      "count": 8604,
      "max": [
        8.139507293701172,
        4.073192119598389,
        10.458590507507324
      ],
      "min": [
        -6.38918399810791,
        -4.917825698852539,
        -9.564027786254883
      ],
      "type": "VEC3"
    },
    {
      "bufferView": 1,
      "byteOffset": 1243680,
      "componentType": 5126,
      "count": 8604,
      "max": [
        0.9992797374725342,
        0.9997001886367798,
        0.9997605681419373
      ],
      "min": [
        -0.9999178051948547,
        -0.9997763633728027,
        -0.9999158978462219
      ],
      "type": "VEC3"
    },
    {
      "bufferView": 0,
      "byteOffset": 1080552,
      "componentType": 5125,
      "count": 50166,
      "type": "SCALAR"
    },
    {
      "bufferView": 1,
      "byteOffset": 1346928,
      "componentType": 5126,
      "count": 5914,
      "max": [
        1.000943899154663,
        5.544079780578613,
        4.707648277282715
      ],
      "min": [
        -5.548704624176025,
        -3.8514187335968018,
        -3.3335039615631104
      ],
      "type": "VEC3"
    },
    {
      "bufferView": 1,
      "byteOffset": 1417896,
      "componentType": 5126,
      "count": 5914,
      "max": [
        0.9998455047607422,
        0.9975536465644836,
        0.9999715089797974
      ],
      "min": [
        -0.9997879266738892,
        -0.9995015263557434,
        -0.9999783039093018
      ],
      "type": "VEC3"
    },
    {
      "bufferView": 0,
      "byteOffset": 1281216,
      "componentType": 5125,
      "count": 33588,
      "type": "SCALAR"
    },
    {
      "bufferView": 1,
      "byteOffset": 1488864,
      "componentType": 5126,
      "count": 13074,
      "max": [
        3.6597824096679688,
        3.8180384635925293,
        3.618299961090088
      ],
      "min": [
        -4.486996650695801,
        -3.9614429473876953,
        -5.1120147705078125
      ],
      "type": "VEC3"
    },
    {
      "bufferView": 1,
      "byteOffset": 1645752,
      "componentType": 5126,
      "count": 13074,
      "max": [
        0.9999747276306152,
        0.9999538660049438,
        0.9999350905418396
      ],
      "min": [
        -0.99996417760849,
        -0.9998311996459961,
        -0.9998161196708679
      ],
      "type": "VEC3"
    },
    {
      "bufferView": 0,
      "byteOffset": 1415568,
      "componentType": 5125,
      "count": 72828,
      "type": "SCALAR"
    }
  ],
  "asset": {
    "extras": {
      "author": "re1monsen (https://sketchfab.com/re1monsen)",
      "license": "CC-BY-4.0 (http://creativecommons.org/licenses/by/4.0/)",
      "source": "https://sketchfab.com/3d-models/lighting-pack-2-forked-lightning-ae1340ba8cb647dda502d884e5c1b862",
      "title": "Lighting Pack 2 - Forked Lightning"
    },
    "generator": "Sketchfab-15.37.0",
    "version": "2.0"
  },
  "bufferViews": [
    {
      "buffer": 0,
      "byteLength": 1706880,
      "name": "floatBufferViews",
      "target": 34963
    },
    {
      "buffer": 0,
      "byteLength": 1802640,
      "byteOffset": 1706880,
      "byteStride": 12,
      "name": "floatBufferViews",
      "target": 34962
    }
  ],
  "buffers": [
    {
      "byteLength": 3509520,
      "uri": "scene.bin"
    }
  ],
  "extensionsUsed": [
    "KHR_materials_emissive_strength"
  ],
  "materials": [
    {
      "doubleSided": true,
      "emissiveFactor": [
        1.0,
        0.922722,
        0.162077
      ],
      "extensions": {
        "KHR_materials_emissive_strength": {
          "emissiveStrength": 1.278538812785388
        }
      },
      "name": "Lightning",
      "pbrMetallicRoughness": {
        "baseColorFactor": [
          0.0,
          0.0,
          0.0,
          1.0
        ],
        "metallicFactor": 0.0,
        "roughnessFactor": 0.5
      }
    }
  ],
  "meshes": [
    {
      "name": "Object_0",
      "primitives": [
        {
          "attributes": {
            "NORMAL": 1,
            "POSITION": 0
          },
          "indices": 2,
          "material": 0,
          "mode": 4
        }
      ]
    },
    {
      "name": "Object_1",
      "primitives": [
        {
          "attributes": {
            "NORMAL": 4,
            "POSITION": 3
          },
          "indices": 5,
          "material": 0,
          "mode": 4
        }
      ]
    },
    {
      "name": "Object_2",
      "primitives": [
        {
          "attributes": {
            "NORMAL": 7,
            "POSITION": 6
          },
          "indices": 8,
          "material": 0,
          "mode": 4
        }
      ]
    },
    {
      "name": "Object_3",
      "primitives": [
        {
          "attributes": {
            "NORMAL": 10,
            "POSITION": 9
          },
          "indices": 11,
          "material": 0,
          "mode": 4
        }
      ]
    },
    {
      "name": "Object_4",
      "primitives": [
        {
          "attributes": {
            "NORMAL": 13,
            "POSITION": 12
          },
          "indices": 14,
          "material": 0,
          "mode": 4
        }
      ]
    }
  ],
  "nodes": [
    {
      "children": [
        1
      ],
      "matrix": [
        1.0,
        0.0,
        0.0,
        0.0,
        0.0,
        2.220446049250313e-16,
        -1.0,
        0.0,
        0.0,
        1.0,
        2.220446049250313e-16,
        0.0,
        0.0,
        0.0,
        0.0,
        1.0
      ],
      "name": "Sketchfab_model"
    },
    {
      "children": [
        2
      ],
      "name": "root"
    },
    {
      "children": [
        3,
        5,
        7,
        9,
        11
      ],
      "matrix": [
        1.0,
        0.0,
        0.0,
        0.0,
        0.0,
        2.220446049250313e-16,
        1.0,
        0.0,
        0.0,
        -1.0,
        2.220446049250313e-16,
        0.0,
        0.0,
        0.0,
        0.0,
        1.0
      ],
      "name": "GLTF_SceneRootNode"
    },
    {
      "children": [
        4
      ],
      "matrix": [
        -0.5552137414535778,
        -0.45791790124805365,
        0.6942974125097235,
        0.0,
        0.16350665553556365,
        0.7583994465343881,
        0.6309483759325388,
        0.0,
        -0.8154773294805283,
        0.463833456332024,
        -0.34620116968374637,
        0.0,
        -26.821575164794922,
        6.4404168128967285,
        -0.39722633361816406,
        1.0
      ],
      "name": "Lightning.001_0"
    },
    {
      "mesh": 0,
      "name": "Object_4"
    },
    {
      "children": [
        6
      ],
      "matrix": [
        -0.6485472902731735,
        -0.3329191214071923,
        0.684508050267334,
        0.0,
        0.47019672273338414,
        0.5319642115993561,
        0.7042223509008079,
        0.0,
        -0.5985828716310793,
        0.778574939346842,
        -0.18846646813412815,
        0.0,
        -11.131964683532715,
        6.930739402770996,
        -0.1350245475769043,
        1.0
      ],
      "name": "Lightning.002_1"
    },
    {
      "mesh": 1,
      "name": "Object_6"
    },
    {
      "children": [
        8
      ],
      "matrix": [
        0.037630585016032336,
        -0.48256559206197264,
        0.875051077611604,
        0.0,
        0.7326128787006683,
        0.6088545286763587,
        0.304260633129245,
        0.0,
        -0.6796045239941176,
        0.6296241833571571,
        0.376445319666166,
        0.0,
        20.52109146118164,
        7.463625431060791,
        -0.4169313311576843,
        1.0
      ],
      "name": "Lightning.003_2"
    },
    {
      "mesh": 2,
      "name": "Object_8"
    },
    {
      "children": [
        10
      ],
      "matrix": [
        0.30150358829855833,
        0.0,
        1.6214329979501116,
        0.0,
        0.0,
        1.6492269039154053,
        0.0,
        0.0,
        -1.6214329979501116,
        0.0,
        0.30150358829855833,
        0.0,
        39.319236755371094,
        5.69362211227417,
        1.1077710390090942,
        1.0
      ],
      "name": "Lightning.004_3"
    },
    {
      "mesh": 3,
      "name": "Object_10"
    },
    {
      "children": [
        12
      ],
      "matrix": [
        1.6992803844662376,
        -5.960062352727281e-08,
        1.2357881892170792,
        0.0,
        1.0702239610843451,
        1.0505621082676042,
        -1.4716199242803825,
        0.0,
        -0.6178938219040255,
        1.8196275795937094,
        0.849639905007123,
        0.0,
        4.022490978240967,
        9.786230087280273,
        -1.0290298461914063,
        1.0
      ],
      "name": "Lightning.005_4"
    },
    {
      "mesh": 4,
      "name": "Object_12"
    }
  ],
  "scene": 0,
  "scenes": [
    {
      "name": "Sketchfab_Scene",
      "nodes": [
        0
      ]
    }
  ]
}
